<svg width="8" height="18" viewBox="0 0 8 18" fill="none" xmlns="http://www.w3.org/2000/svg">
<path d="M6.63999 0.480166C6.81999 0.480166 7 0.480166 7.36 0.480166V3.18017C7.18 3.18017 6.82 3.18017 6.46 3.18017C6.1 3.18017 5.74 3.18017 5.56 3.36017C5.38 3.54017 5.37999 3.72017 5.37999 4.14017C5.37999 4.50017 5.37999 4.74017 5.37999 5.10017H7.36V7.38017H5.37999V17.2802H2.32V7.32017H0.699997V5.04017H2.32V4.26017C2.32 2.94017 2.5 1.98017 2.86 1.56017C3.4 0.780166 4.48 0.420166 6.1 0.420166C6.28 0.480166 6.45999 0.480166 6.63999 0.480166Z" fill="white"/>
</svg>
