<svg width="20" height="20" viewBox="0 0 20 20" fill="none" xmlns="http://www.w3.org/2000/svg">
<path d="M19.5382 6.06687C19.5264 5.26111 19.3772 4.46173 19.0914 3.70812C18.5914 2.42124 17.5732 1.40365 16.2841 0.905502C15.5389 0.625559 14.7509 0.475476 13.9534 0.458446C12.9278 0.412675 12.6026 0.399902 9.99893 0.399902C7.39529 0.399902 7.06157 0.399902 6.04335 0.458446C5.24691 0.475476 4.45899 0.625559 3.71372 0.905502C2.42469 1.40365 1.40541 2.42124 0.906435 3.70812C0.626027 4.45215 0.474627 5.23875 0.459701 6.03388C0.413854 7.05891 0.399994 7.38356 0.399994 9.98287C0.399994 12.5822 0.399994 12.9143 0.459701 13.9319C0.475694 14.7281 0.626027 15.5136 0.906435 16.2598C1.40648 17.5456 2.42469 18.5632 3.71479 19.0613C4.45686 19.3508 5.24477 19.5148 6.04442 19.5403C7.07116 19.5861 7.39635 19.5999 10 19.5999C12.6036 19.5999 12.9374 19.5999 13.9556 19.5403C14.752 19.5243 15.5399 19.3742 16.2863 19.0943C17.5753 18.5951 18.5935 17.5775 19.0936 16.2917C19.374 15.5466 19.5243 14.7611 19.5403 13.9638C19.5861 12.9398 19.6 12.6152 19.6 10.0148C19.5979 7.41549 19.5979 7.08552 19.5382 6.06687ZM9.99253 14.8984C7.26948 14.8984 5.06352 12.6961 5.06352 9.97755C5.06352 7.25902 7.26948 5.05674 9.99253 5.05674C12.7135 5.05674 14.9215 7.25902 14.9215 9.97755C14.9215 12.6961 12.7135 14.8984 9.99253 14.8984ZM15.1177 6.02217C14.4812 6.02217 13.9684 5.50912 13.9684 4.87472C13.9684 4.24033 14.4812 3.72728 15.1177 3.72728C15.7521 3.72728 16.266 4.24033 16.266 4.87472C16.266 5.50912 15.7521 6.02217 15.1177 6.02217Z" fill="white"/>
</svg>
