
777 bytes → 489 bytes 62.93%
<svg xmlns="http://www.w3.org/2000/svg" width="40" height="40" fill="none">
  <rect width="39" height="39" x=".5" y=".5" stroke="#111" stroke-opacity=".1" rx="9.5"/>
  <path fill="#111" d="M29.538 16.067a6.94 6.94 0 0 0-.447-2.359 4.911 4.911 0 0 0-2.807-2.803 7.057 7.057 0 0 0-2.33-.447c-1.026-.045-1.351-.058-3.955-.058s-2.937 0-3.956.058a7.055 7.055 0 0 0-2.33.447 4.907 4.907 0 0 0-2.806 2.803 6.968 6.968 0 0 0-.447 2.326c-.046 1.025-.06 1.35-.06 3.949 0 2.6 0 2.931.06 3.949a7.01 7.01 0 0 0 .446 2.328 4.91 4.91 0 0 0 2.809 2.801 7.03 7.03 0 0 0 2.33.48c1.026.045 1.351.059 3.955.059s2.937 0 3.956-.06a7.038 7.038 0 0 0 2.33-.446 4.917 4.917 0 0 0 2.808-2.802 7 7 0 0 0 .446-2.328c.046-1.024.06-1.349.06-3.95-.002-2.598-.002-2.928-.062-3.947Zm-9.545 8.831a4.924 4.924 0 0 1-4.93-4.92 4.924 4.924 0 0 1 4.93-4.921 4.925 4.925 0 0 1 4.929 4.92 4.925 4.925 0 0 1-4.93 4.921Zm5.125-8.876a1.147 1.147 0 1 1 0-2.295 1.147 1.147 0 1 1 0 2.295Z"/>
  <path fill="#111" d="M19.994 22.982a3.003 3.003 0 1 0 0-6.006 3.003 3.003 0 0 0 0 6.006Z"/>
</svg>