<!-- Generated by IcoMoon.io -->
<svg version="1.1" xmlns="http://www.w3.org/2000/svg" width="32" height="32" viewBox="0 0 32 32">
<title>instagram</title>
<path fill="none" stroke-linejoin="miter" stroke-linecap="butt" stroke-miterlimit="4" stroke-width="0.8" stroke="#000" d="M8 0.4h16c4.197 0 7.6 3.403 7.6 7.6v16c0 4.197-3.403 7.6-7.6 7.6h-16c-4.197 0-7.6-3.403-7.6-7.6v-16c0-4.197 3.403-7.6 7.6-7.6z"></path>
<path d="M23.631 12.854c-0.009-0.645-0.129-1.284-0.357-1.887-0.4-1.030-1.215-1.844-2.246-2.242-0.596-0.224-1.227-0.344-1.865-0.358-0.821-0.037-1.081-0.047-3.164-0.047s-2.35 0-3.164 0.047c-0.637 0.014-1.268 0.134-1.864 0.358-1.031 0.399-1.847 1.213-2.246 2.242-0.224 0.595-0.345 1.225-0.357 1.861-0.037 0.82-0.048 1.080-0.048 3.159s0 2.345 0.048 3.159c0.013 0.637 0.133 1.265 0.357 1.862 0.4 1.029 1.215 1.843 2.247 2.241 0.594 0.232 1.224 0.363 1.864 0.383 0.821 0.037 1.082 0.048 3.164 0.048s2.35 0 3.164-0.048c0.637-0.013 1.268-0.133 1.865-0.357 1.031-0.399 1.846-1.213 2.246-2.242 0.224-0.596 0.345-1.224 0.357-1.862 0.037-0.819 0.048-1.079 0.048-3.159-0.002-2.079-0.002-2.343-0.049-3.158zM15.994 19.919c-2.178 0-3.943-1.762-3.943-3.937s1.765-3.937 3.943-3.937c2.177 0 3.943 1.762 3.943 3.937s-1.766 3.937-3.943 3.937zM20.094 12.818c-0.509 0-0.92-0.41-0.92-0.918s0.41-0.918 0.92-0.918c0.507 0 0.919 0.41 0.919 0.918s-0.411 0.918-0.919 0.918z"></path>
<path d="M15.995 18.386c1.327 0 2.402-1.076 2.402-2.402s-1.076-2.402-2.402-2.402c-1.327 0-2.402 1.076-2.402 2.402s1.076 2.402 2.402 2.402z"></path>
</svg>
